<svg version="1.1" viewBox="0 0 24 24" xmlns="http://www.w3.org/2000/svg">
    <path d="M7.5,2 C5.71,3.15,4.5,5.18,4.5,7.5 C4.5,9.82,5.71,11.85,7.53,13 C4.46,13,2,10.54,2,7.5
    A5.5,5.5,0,0,1,7.5,2 M19.07,3.5 L20.5,4.93 L4.93,20.5 L3.5,19.07 L19.07,3.5 M12.89,5.93 L11.41,5
    L9.97,6 L10.39,4.3 L9,3.24 L10.75,3.12 L11.33,1.47 L12,3.1 L13.73,3.13 L12.38,4.26 L12.89,5.93
    M9.59,9.54 L8.43,8.81 L7.31,9.59 L7.65,8.27 L6.56,7.44 L7.92,7.35 L8.37,6.06 L8.88,7.33
    L10.24,7.36 L9.19,8.23 L9.59,9.54 M19,13.5 A5.5,5.5,0,0,1,13.5,19
    C12.28,19,11.15,18.6,10.24,17.93 L17.93,10.24 C18.6,11.15,19,12.28,19,13.5 M14.6,20.08
    L17.37,18.93 L17.13,22.28 L14.6,20.08 M18.93,17.38 L20.08,14.61 L22.28,17.15 L18.93,17.38
    M20.08,12.42 L18.94,9.64 L22.28,9.88 L20.08,12.42 M9.63,18.93 L12.4,20.08 L9.87,22.17
    L9.63,18.93 Z" />
</svg>
