<svg version="1.1" viewBox="0 0 32 32" width="1024px" height="1024px"
    xmlns="http://www.w3.org/2000/svg" xmlns:xlink="http://www.w3.org/1999/xlink">
    <circle cx="16" cy="16" r="15" fill="#00DE7A" stroke-width="1" stroke="#000" />
    <g transform="translate(3.2 4.8) scale(0.8)">
        <g stroke-width="1.25" stroke="#000">
            <path stroke="none" d="M15,29c0,0.55,0.45,1,1,1s1-0.45,1-1v-2.7h-2V29" />
            <path fill="#073042"
                d="M12.5,23.3v2c0,0.55,0.45,1,1,1H15h2h1.5c0.55,0,1-0.45,1-1v-2H12.5" />
            <path fill="#2196F3" d="M26,2H6C5.45,2,5,2.45,5,3v13.25c0,3.88,3.16,7,7,7H12.5h7h0.46
                  c3.88,0,7-3.16,7-7V3C27,2.45,26.55,2,26,2" />
        </g>
        <g id="svg_star" transform="translate(16, 12.6) scale(0.065, 0.065)">
            <path id="svg_bar" fill="#FFB13B"
                d="M-84.15,-15.85a22.42,22.42,0,1,0,0,31.7h168.3a22.42,22.42,0,1,0,0,-31.7z" />
            <use xlink:href="#svg_bar" transform="rotate(45)" />
            <use xlink:href="#svg_bar" transform="rotate(90)" />
            <use xlink:href="#svg_bar" transform="rotate(135)" />
        </g>
        <use xlink:href="#svg_star" stroke-width="38" stroke="#000" />
        <use xlink:href="#svg_star" />
    </g>
</svg>
